<?xml version="1.0" standalone="no"?>
<!DOCTYPE svg PUBLIC "-//W3C//DTD SVG 20010904//EN"
 "http://www.w3.org/TR/2001/REC-SVG-20010904/DTD/svg10.dtd">
<svg version="1.0" xmlns="http://www.w3.org/2000/svg"
 width="512.000000pt" height="512.000000pt" viewBox="0 0 512.000000 512.000000"
 preserveAspectRatio="xMidYMid meet">

<g transform="translate(0.000000,512.000000) scale(0.100000,-0.100000)"
fill="#000000" stroke="none">
<path d="M559 4396 c-60 -21 -100 -56 -125 -110 -42 -90 -28 -173 42 -242 l44
-45 0 -485 0 -486 -41 -46 c-50 -57 -84 -122 -104 -199 -22 -86 -22 -1082 0
-1168 46 -173 192 -325 363 -376 l42 -12 0 -51 c0 -75 25 -180 56 -236 58
-107 183 -198 303 -220 74 -14 2769 -14 2841 0 213 40 360 217 360 434 l0 72
60 18 c116 35 249 146 303 252 62 123 62 119 62 699 0 486 -2 535 -18 590 -26
82 -62 151 -108 207 l-39 47 0 483 0 483 35 28 c100 80 102 237 3 321 -138
119 -348 22 -348 -160 0 -69 20 -114 71 -158 l39 -33 0 -421 c0 -376 -2 -422
-16 -422 -31 0 -51 20 -58 57 -10 67 -63 162 -120 218 -65 62 -137 100 -227
115 -45 8 -475 10 -1459 8 -1346 -3 -1397 -4 -1445 -22 -144 -55 -239 -163
-277 -311 -13 -53 -22 -65 -50 -65 -17 0 -18 27 -18 423 l0 423 40 39 c52 50
75 110 66 171 -12 88 -62 149 -148 180 -49 17 -82 17 -129 0z m3424 -1052 c67
-23 132 -95 146 -165 8 -39 11 -345 9 -1064 -3 -948 -4 -1012 -21 -1050 -24
-53 -72 -103 -122 -126 -38 -18 -97 -19 -1436 -19 l-1397 0 -53 28 c-39 20
-62 41 -84 77 l-30 48 -3 1046 c-2 735 0 1057 8 1084 19 65 83 124 160 148 14
4 644 8 1401 8 1225 1 1380 -1 1422 -15z"/>
<path d="M1669 2956 c-130 -45 -236 -139 -293 -260 -34 -73 -45 -126 -46 -222
0 -233 155 -429 387 -489 218 -57 469 62 568 270 56 118 68 216 40 333 -41
174 -160 306 -331 368 -90 33 -230 33 -325 0z m359 -185 c153 -78 181 -288 53
-390 -51 -41 -82 -51 -152 -51 -73 0 -115 17 -163 64 -114 115 -83 299 64 377
48 25 148 25 198 0z m-353 -406 c30 -29 32 -64 5 -98 -26 -33 -63 -41 -99 -23
-32 17 -41 34 -41 77 0 66 86 94 135 44z"/>
<path d="M3130 2957 c-210 -71 -340 -253 -340 -476 0 -143 40 -247 135 -349
62 -68 176 -133 263 -151 297 -62 583 155 608 462 19 225 -135 449 -353 517
-91 28 -225 27 -313 -3z m358 -186 c123 -63 169 -211 103 -326 -16 -28 -48
-64 -72 -80 -39 -28 -49 -30 -129 -30 -80 0 -90 2 -130 30 -146 101 -139 308
15 396 63 36 154 40 213 10z m-353 -406 c30 -29 32 -64 5 -98 -26 -33 -63 -41
-99 -23 -32 17 -41 34 -41 77 0 66 86 94 135 44z"/>
<path d="M2086 1813 c17 -125 52 -202 132 -285 97 -102 202 -148 337 -148 127
0 229 39 320 122 89 81 145 188 157 301 l6 47 -79 0 -79 0 0 -30 c0 -54 -39
-138 -88 -188 -71 -72 -128 -96 -232 -96 -74 -1 -93 3 -142 27 -32 16 -75 48
-97 74 -43 48 -81 135 -81 183 l0 30 -79 0 -80 0 5 -37z"/>
</g>
</svg>
