<?xml version="1.0" encoding="UTF-8"?>
<svg version="1.1" xmlns="http://www.w3.org/2000/svg" width="512" height="512">
<path d="M0 0 C5.73279755 3.31960762 9.63576103 8.16159255 11.6875 14.4375 C12.6051924 21.44094201 12.30580382 27.03725684 8.05859375 32.8125 C6.35441584 34.83226642 4.72782088 36.74895858 2.6875 38.4375 C2.0275 38.4375 1.3675 38.4375 0.6875 38.4375 C0.6875 66.4875 0.6875 94.5375 0.6875 123.4375 C3.1625 122.9425 3.1625 122.9425 5.6875 122.4375 C5.76226562 121.85484375 5.83703125 121.2721875 5.9140625 120.671875 C7.78094477 109.03131496 13.16413363 98.5033531 22.6875 91.375 C23.533125 90.72402344 24.37875 90.07304687 25.25 89.40234375 C34.09951949 84.34403886 42.83817241 82.8455703 52.9074707 82.92956543 C54.07715299 82.92332547 55.24683527 82.9170855 56.45196247 82.91065645 C59.66274396 82.89756483 62.87290897 82.90213614 66.08367395 82.91460133 C69.56023914 82.92371503 73.03672595 82.90965104 76.51327515 82.89868164 C83.30963315 82.88095871 90.10581377 82.88470846 96.90217853 82.8963322 C102.42907327 82.9053909 107.95591855 82.90658003 113.4828186 82.90223694 C114.66581274 82.90131754 114.66581274 82.90131754 115.87270576 82.90037957 C117.47520059 82.89910058 119.0776954 82.89780372 120.68019021 82.8964892 C135.68274498 82.88510165 150.68520175 82.89816839 165.68774045 82.91969067 C178.54155049 82.93756 191.395216 82.93445538 204.24902344 82.91601562 C219.2003921 82.89457659 234.15167502 82.88620011 249.10305691 82.89846468 C250.69943172 82.89973878 252.29580655 82.90099627 253.8921814 82.90223694 C254.67748854 82.90285404 255.46279567 82.90347114 256.2719 82.90410694 C261.7877839 82.90755076 267.3036131 82.90175247 272.81948853 82.89231873 C279.54779562 82.88106357 286.27591621 82.88421225 293.00420213 82.9054417 C296.43262757 82.91590517 299.86074283 82.92015529 303.2891655 82.90684509 C307.01559307 82.89586382 310.74115632 82.90968616 314.4675293 82.92956543 C315.53720098 82.92064254 316.60687265 82.91171966 317.70895863 82.90252638 C330.20477973 83.03123004 340.36501614 87.15756296 349.6875 95.4375 C356.43597755 102.67703101 361.6875 112.41300886 361.6875 122.4375 C363.0075 122.4375 364.3275 122.4375 365.6875 122.4375 C366.0175 94.7175 366.3475 66.9975 366.6875 38.4375 C365.3675 37.7775 364.0475 37.1175 362.6875 36.4375 C357.94392027 31.46803553 355.7145013 27.1427958 355.25 20.1875 C355.40787267 13.95679183 358.07449607 8.43579942 362.14453125 3.765625 C367.4682522 -1.01027243 373.17367186 -2.04174887 380.09375 -1.875 C385.7491725 -1.1936238 390.72511829 0.9773332 394.5625 5.25 C398.78173605 11.57885408 400.6537469 16.89540613 399.6875 24.4375 C397.96201733 29.99738859 394.97576375 34.50758698 390.6875 38.4375 C390.0275 38.4375 389.3675 38.4375 388.6875 38.4375 C388.63274404 51.04263711 388.62121531 63.64701334 388.66415405 76.25221825 C388.68275191 82.1060742 388.68672378 87.95916359 388.65673828 93.81298828 C388.62832118 99.46740323 388.63901872 105.12054092 388.67630005 110.7748909 C388.68371957 112.9269243 388.67728586 115.07905354 388.65646362 117.23099899 C388.10198017 130.74124703 388.10198017 130.74124703 393.62133789 142.58544922 C394.97035461 143.87615766 396.32493085 145.16110676 397.6875 146.4375 C399.18351403 148.9774997 400.08720974 151.40045987 401.125 154.1875 C401.36669922 154.80753906 401.60839844 155.42757812 401.85742188 156.06640625 C404.5779227 163.26550314 404.84299648 170.05138935 404.86450195 177.64282227 C404.87107315 178.6566951 404.87764435 179.67056793 404.88441467 180.71516418 C404.90407952 184.0614124 404.9157964 187.40761582 404.92578125 190.75390625 C404.92985678 191.90162947 404.9339323 193.04935268 404.93813133 194.23185539 C404.95896511 200.30927218 404.97327733 206.38666659 404.98266602 212.46411133 C404.99371225 218.71577336 405.02809977 224.96707771 405.06783772 231.21861362 C405.09408484 236.04789353 405.10236515 240.87708931 405.10594749 245.70643425 C405.11079411 248.00952502 405.12235254 250.31261252 405.14098549 252.61563301 C405.2850217 271.60148217 403.74159087 288.15346595 390.0625 302.6875 C382.72924691 309.64412075 373.12246351 316.4375 362.6875 316.4375 C362.71070313 317.18773437 362.73390625 317.93796875 362.7578125 318.7109375 C363.0012407 332.51679408 360.23641957 345.43508543 350.4296875 355.8515625 C339.86668351 365.46721188 328.60962287 369.06113225 314.47425842 368.9521637 C313.30528171 368.95910922 312.13630499 368.96605475 310.93190473 368.97321075 C307.72306267 368.98822368 304.51482602 368.98559311 301.30598509 368.97505772 C297.83143763 368.96801671 294.35698143 368.98410048 290.88246155 368.99705505 C284.08978706 369.0186188 277.29728061 369.01858788 270.50458319 369.01042951 C264.98007902 369.00411173 259.4556236 369.00528277 253.93111992 369.01170158 C253.14274588 369.01260324 252.35437184 369.01350489 251.54210768 369.01443387 C249.94017858 369.0162852 248.3382495 369.01814777 246.73632043 369.02002143 C231.73850899 369.03657329 216.74079182 369.02790296 201.74298608 369.01103585 C188.0434127 368.99634092 174.34405869 369.01096897 160.64451355 369.03980602 C146.55166234 369.06924833 132.45891219 369.08015825 118.36603159 369.07062382 C116.76991969 369.06960134 115.17380778 369.06860673 113.57769585 369.0676403 C112.79252942 369.06716391 112.00736299 369.06668752 111.19840365 369.0661967 C105.68597702 369.06403896 100.1736468 369.07380237 94.66124153 369.08841133 C87.93549736 369.10598845 81.2100327 369.10574065 74.48429925 369.08305968 C71.05770833 369.07196595 67.63160886 369.06864268 64.20503998 369.08736038 C32.90457745 369.22175269 32.90457745 369.22175269 19.6875 357.4375 C19.08421875 356.94894531 18.4809375 356.46039063 17.859375 355.95703125 C11.27281213 350.1579922 6.81556676 341.13787693 5.6875 332.4375 C5.619411 329.65674515 5.59271664 326.90385261 5.625 324.125 C5.62951172 323.38443359 5.63402344 322.64386719 5.63867188 321.88085938 C5.65037825 320.06637101 5.66831102 318.25192466 5.6875 316.4375 C4.615 316.39625 3.5425 316.355 2.4375 316.3125 C-9.34091897 314.77256536 -18.79156648 306.81029631 -26.3125 298.12890625 C-35.25595358 286.39062343 -37.45531388 273.00210323 -37.47363281 258.66357422 C-37.47859772 257.71929062 -37.48356262 256.77500702 -37.48867798 255.80210876 C-37.50320205 252.69879407 -37.51008585 249.59553051 -37.515625 246.4921875 C-37.51845238 245.42477451 -37.52127975 244.35736153 -37.52419281 243.25760269 C-37.53914722 237.606954 -37.5483999 231.95633058 -37.55273438 226.30566406 C-37.55820828 220.5026173 -37.58222447 214.69980643 -37.61070633 208.89683342 C-37.62943687 204.40464629 -37.63454386 199.91251476 -37.63607025 195.4202919 C-37.63907467 193.2827132 -37.64702731 191.14513495 -37.66025543 189.00759506 C-37.75123228 173.17459909 -37.7887346 157.947008 -28.3125 144.4375 C-27.75654365 143.88804466 -27.20058729 143.33858932 -26.62778378 142.77248383 C-22.2830918 138.41303429 -20.51133831 135.39552726 -20.37809753 129.22293091 C-20.39391373 128.33532074 -20.40972992 127.44771057 -20.42602539 126.53320312 C-20.41524963 125.576185 -20.40447388 124.61916687 -20.39337158 123.63314819 C-20.36613194 120.49421645 -20.38779752 117.35768658 -20.41015625 114.21875 C-20.40076666 112.03298458 -20.38830609 109.84723038 -20.37290955 107.66149902 C-20.34072688 101.92711185 -20.35011079 96.19352564 -20.36828613 90.45910645 C-20.37945591 84.60025314 -20.35112905 78.7416036 -20.32617188 72.8828125 C-20.28305937 61.40089878 -20.28387828 49.91944338 -20.3125 38.4375 C-21.08207031 38.16679688 -21.85164063 37.89609375 -22.64453125 37.6171875 C-26.58501822 35.87483455 -28.49632724 33.21409028 -30.3125 29.4375 C-32.35218191 22.79238246 -33.04211414 16.85452297 -30.359375 10.3359375 C-24.48407145 -0.31853087 -11.10775064 -5.01778697 0 0 Z M31.8125 112.3125 C30.98105469 113.26769531 30.98105469 113.26769531 30.1328125 114.2421875 C26.68992424 119.47165561 26.39703368 124.78400065 26.42680359 130.88105774 C26.42297804 131.71696243 26.41915249 132.55286712 26.41521102 133.41410226 C26.40491458 136.20752912 26.40886681 139.00074916 26.4128418 141.79418945 C26.40849342 143.80015248 26.40330985 145.80611385 26.39735413 147.81207275 C26.38396521 153.25638172 26.38338544 158.70062126 26.38591743 164.14494348 C26.38698739 168.69255258 26.38210303 173.24014766 26.377312 177.78775376 C26.3662168 188.51891358 26.36577924 199.25003839 26.37182617 209.98120117 C26.37786441 221.04429006 26.36555873 232.10725172 26.3442561 243.1703189 C26.32662939 252.67454409 26.32064051 262.17872882 26.32389385 271.68296975 C26.32570541 277.35673397 26.3230832 283.03040748 26.30917931 288.70415688 C26.29658855 294.04183665 26.298557 299.37931845 26.31159019 304.71699524 C26.31395294 306.67247777 26.31123216 308.62797429 26.30296707 310.58344078 C26.29247209 313.26018566 26.30062227 315.93626967 26.3132782 318.61299133 C26.30590391 319.38032744 26.29852963 320.14766355 26.29093188 320.93825227 C26.35753427 327.66929438 27.77999491 334.3106045 31.9375 339.75 C37.35084239 345.04031188 42.89967739 347.55759706 50.46773911 347.56892776 C51.43218689 347.57276891 52.39663467 347.57661005 53.39030814 347.5805676 C54.97549825 347.57926787 54.97549825 347.57926787 56.5927124 347.57794189 C57.71754603 347.58091302 58.84237965 347.58388414 60.00129914 347.5869453 C63.7844022 347.59564255 67.56747366 347.59714142 71.35058594 347.59863281 C74.05737495 347.60272212 76.76416062 347.60826416 79.47094727 347.61367798 C86.83464742 347.6272566 94.19834213 347.63328529 101.56205273 347.63768864 C106.16061455 347.64045187 110.75917428 347.64468938 115.35773468 347.64919281 C128.0915959 347.66138489 140.82545543 347.67168431 153.55932236 347.6750679 C154.37423008 347.67528747 155.18913781 347.67550703 156.02873971 347.67573325 C156.84558928 347.67595153 157.66243885 347.67616981 158.50404143 347.6763947 C160.15926981 347.67683817 161.81449819 347.67728473 163.46972656 347.67773438 C164.29077575 347.6779558 165.11182494 347.67817723 165.9577544 347.67840537 C179.26023235 347.68235298 192.5626555 347.69980612 205.86511227 347.7230939 C219.52486962 347.74681401 233.18459948 347.75927005 246.84437776 347.76043582 C254.51289749 347.76135221 262.18134583 347.7670955 269.84984589 347.78525543 C276.38005822 347.80066534 282.91017709 347.80577165 289.44040415 347.79751733 C292.77107422 347.79361389 296.10140332 347.79616126 299.4320755 347.80857468 C303.04633018 347.82125519 306.66010184 347.81543798 310.27435303 347.80499268 C311.84615881 347.81707728 311.84615881 347.81707728 313.44971824 347.82940602 C322.43378907 347.7686768 329.11753189 346.00746811 335.6875 339.4375 C340.36988221 332.91507622 340.83641346 326.89874728 340.84140015 319.08296204 C340.8457824 318.24453378 340.85016465 317.40610553 340.8546797 316.54227036 C340.86802854 313.73431398 340.87423773 310.92638895 340.88037109 308.1184082 C340.88827508 306.1043636 340.89654422 304.09032041 340.90515137 302.07627869 C340.93133489 295.46362656 340.94667434 288.85096822 340.9609375 282.23828125 C340.96629849 279.95985599 340.97167601 277.68143078 340.97706985 275.4030056 C340.99869227 265.9245995 341.01742861 256.44619508 341.02869225 246.96777058 C341.04493043 233.39372826 341.07811266 219.8199722 341.13509309 206.24603778 C341.17381303 196.69596584 341.19332733 187.14597041 341.19861281 177.59582204 C341.2022631 171.89452925 341.21425093 166.19354204 341.24671555 160.49233437 C341.2768324 155.1266842 341.28309489 149.76152397 341.27133179 144.39580727 C341.27111137 142.43105237 341.27939031 140.46627448 341.29698563 138.50159836 C341.60972719 123.01864536 341.60972719 123.01864536 334.20931053 109.81627369 C329.88600778 105.89932347 325.47281334 104.1898188 319.70612621 104.18023109 C318.7222704 104.1737822 317.7384146 104.16733331 316.72474498 104.160689 C315.11474202 104.1653348 315.11474202 104.1653348 313.47221375 104.17007446 C312.32610793 104.16554335 311.18000212 104.16101224 309.99916583 104.15634382 C306.82202174 104.14587487 303.64502002 104.14437376 300.46786416 104.14673257 C297.03966598 104.14714084 293.61150153 104.13610055 290.18331909 104.12661743 C283.46827531 104.11000867 276.75326664 104.10450794 270.03820404 104.10339268 C264.57929029 104.10244212 259.12038813 104.09833146 253.66147804 104.09199142 C238.18169273 104.07437918 222.70193514 104.0651525 207.22213974 104.06665237 C206.38772278 104.06673228 205.55330583 104.0668122 204.69360352 104.06689453 C203.85816676 104.06697629 203.02273 104.06705805 202.16197697 104.06714229 C188.62351189 104.06795514 175.08515808 104.04881781 161.54672518 104.0206178 C147.64284774 103.9918853 133.73902456 103.97807771 119.83511668 103.97980535 C112.03021948 103.98046914 104.22543892 103.97498187 96.42056847 103.95344925 C89.77507176 103.93523259 83.12974457 103.930894 76.4842337 103.9444681 C73.0947442 103.95099561 69.70584508 103.94894762 66.31634331 103.9337616 C62.63851689 103.91835079 58.9615449 103.92759117 55.28373718 103.94302368 C54.21709404 103.93273656 53.1504509 103.92244943 52.05148524 103.91185057 C43.81523296 103.98823989 37.26965077 105.81091846 31.8125 112.3125 Z " fill="#000000" transform="translate(72.3125,72.5625)"/>
<path d="M0 0 C10.16571963 8.58404422 17.1490987 19.69645342 18.55908203 33.12060547 C19.64451854 48.77607063 16.19707648 62.16967002 6.2890625 74.5546875 C-1.37607244 83.00434128 -13.08902631 90.37663251 -24.72827148 91.12963867 C-41.61711619 91.87373997 -54.27664338 89.28122011 -67.6953125 78.33984375 C-76.95301784 69.73180194 -82.97768368 56.71099402 -83.8671875 44.12109375 C-84.09742422 28.77197934 -80.2889382 15.22167064 -69.625 3.8359375 C-50.02686743 -14.55195182 -21.38264061 -16.08400973 0 0 Z M-39.5546875 15.93359375 C-44.12954556 21.79651864 -46.21753671 26.81992548 -46.0390625 34.3046875 C-45.0295864 41.54978161 -41.17936376 47.49332198 -35.40625 51.87890625 C-29.9114711 55.40246402 -24.0164807 55.75301839 -17.6640625 54.99609375 C-10.92131028 53.18864653 -6.48508517 49.78886209 -2.6640625 43.99609375 C0.29109178 38.67681605 1.27081946 33.97337094 0.3359375 27.99609375 C-0.75230964 24.85390268 -2.11656463 21.93571822 -3.6640625 18.99609375 C-4.1590625 18.00609375 -4.1590625 18.00609375 -4.6640625 16.99609375 C-5.3240625 16.99609375 -5.9840625 16.99609375 -6.6640625 16.99609375 C-6.6640625 16.33609375 -6.6640625 15.67609375 -6.6640625 14.99609375 C-8.34912932 13.66440133 -8.34912932 13.66440133 -10.4765625 12.43359375 C-11.18425781 11.99917969 -11.89195312 11.56476563 -12.62109375 11.1171875 C-21.63407593 6.17124891 -32.54694819 8.75210884 -39.5546875 15.93359375 Z M-61.6640625 53.99609375 C-61.73047804 57.84819502 -61.53635407 59.9945738 -58.9765625 62.93359375 C-55.92803373 64.33426913 -53.98479298 64.48036695 -50.6640625 63.99609375 C-48.14399406 62.55948064 -48.14399406 62.55948064 -46.6640625 59.99609375 C-45.9140625 56.49609375 -45.9140625 56.49609375 -46.6640625 52.99609375 C-49.05220203 50.33502399 -50.67960135 49.21759751 -54.1640625 48.43359375 C-57.95488545 49.28652891 -59.41095293 50.88150111 -61.6640625 53.99609375 Z " fill="#000000" transform="translate(361.6640625,224.00390625)"/>
<path d="M0 0 C9.74220237 8.22642164 17.29705728 19.33677351 18.55908203 32.28564453 C19.57223402 48.51830859 16.59555892 61.65580434 6.2890625 74.55859375 C-1.38322888 83.00326346 -13.08659685 90.37647533 -24.72827148 91.12963867 C-41.61872379 91.8738108 -55.08819495 89.45514969 -68.10546875 77.8125 C-78.06873114 67.54578799 -83.53507211 54.95868828 -83.9765625 40.74609375 C-83.68679979 25.2437885 -78.2153826 13.19758322 -67.6640625 1.99609375 C-48.29798473 -15.08186867 -20.29259489 -15.26407797 0 0 Z M-41.1640625 17.99609375 C-45.27878792 24.2495465 -46.70991777 29.48990331 -45.6640625 36.99609375 C-43.40284114 43.87061049 -39.77351117 49.07837554 -33.6640625 52.99609375 C-27.9330708 55.79791191 -21.35630438 55.98582793 -15.23046875 54.34375 C-8.16664935 51.56825267 -4.45923363 47.16756274 -0.7890625 40.68359375 C1.28078535 33.89909248 1.24472558 28.28103994 -1.6640625 21.74609375 C-4.91309387 15.8756848 -9.36157333 12.90806116 -15.0390625 9.62109375 C-25.18782822 7.20472096 -34.59794799 9.58126739 -41.1640625 17.99609375 Z M-59.6640625 50.99609375 C-61.98888444 53.8980296 -61.98888444 53.8980296 -61.7265625 57.62109375 C-60.92278655 60.95986209 -60.92278655 60.95986209 -58.9765625 62.93359375 C-55.92803373 64.33426913 -53.98479298 64.48036695 -50.6640625 63.99609375 C-48.14399406 62.55948064 -48.14399406 62.55948064 -46.6640625 59.99609375 C-46.24261034 56.564269 -45.9928319 54.18061834 -47.7265625 51.12109375 C-52.1386349 48.55924526 -55.38968028 48.1465056 -59.6640625 50.99609375 Z " fill="#000000" transform="translate(215.6640625,224.00390625)"/>
<path d="M0 0 C5.28 0 10.56 0 16 0 C16.4125 1.815 16.825 3.63 17.25 5.5 C20.03706484 16.39256533 24.1741976 22.92426265 33.80078125 29.16796875 C40.91775253 32.52919909 51.23335631 32.13588105 58.75390625 30.34375 C66.28367773 27.3056509 72.87370008 21.80792915 76.19140625 14.33203125 C77.81917194 9.63746064 78.89943452 4.84248809 80 0 C85.28 0 90.56 0 96 0 C96 13.96185562 91.37936861 25.36845438 82 35.6875 C72.49283147 44.71450851 60.98203169 48.26376789 48.1875 49.3125 C33.95001823 48.81652215 21.71560066 43.81582213 12 33.40625 C3.77775577 23.51386241 0 12.84065516 0 0 Z " fill="#000000" transform="translate(208,326)"/>
</svg>
